<svg xmlns="http://www.w3.org/2000/svg" xmlns:xlink="http://www.w3.org/1999/xlink" width="700px" height="561.38px" viewBox="0 0 101 81">
    <use xlink:href="#A" x=".5" y=".5"/>
    <symbol id="A" overflow="visible">
        <path d="M44.381 29.258c-5.897 3.038-8.461 10.38-5.385 16.202s10.513 8.102 16.41 5.317c5.897-3.038 8.461-10.38 5.384-16.202-3.077-6.076-10.513-8.355-16.41-5.317zm7.692 14.684c-2.308 1.012-4.872.253-5.897-2.025s-.257-4.81 1.795-5.823c2.308-1.012 4.872-.253 6.154 2.026 1.026 2.026 0 4.557-2.051 5.823zM95.641 0H4.359C2.052 0 0 2.278 0 5.063v69.873C0 77.722 2.052 80 4.359 80h91.282c2.307 0 4.359-2.278 4.359-5.063V5.063C100 2.278 97.949 0 95.641 0zM74.615 49.114L70 56.456l-6.41-2.532A19.32 19.32 0 0 1 60 56.709l.769 7.089-8.462 2.025-2.564-6.329c-1.539 0-3.077-.254-4.616-.507l-4.359 5.57L33.333 60l2.564-6.076c-1.026-1.012-2.051-2.278-2.82-3.797l-6.923.76-2.051-8.355L30.257 40c0-1.519.256-3.038.769-4.556l-5.641-4.304 4.616-7.342 6.41 2.532c1.026-1.012 2.051-1.772 3.077-2.532l-1.025-7.089 8.462-2.278 2.821 6.329c1.795 0 3.333.253 4.872.759l4.615-5.57 7.436 4.557-2.821 6.583c1.026 1.012 1.795 2.278 2.564 3.544l7.436-.76 2.051 8.355-6.666 2.785c0 1.519-.256 2.785-.513 4.304l5.897 3.797z" fill="#0078d7" stroke="none"/>
    </symbol>
</svg>